PathFileType	4	(X/Y/Z)	Walk9.trc
DataRate	CameraRate	NumFrames	NumMarkers	Units	OrigDataRate	OrigDataStartFrame	OrigNumFrames
200.000000	200.000000	8	61	mm	200.000000	365	503
Frame#	Times		LFHD		RFHD		CLAV		LASI		RASI		RACR1		RUA1		RFA1		RWRR		RCAR		LACR1		LUA1		LWRU		RTH3		RTB4		LTH1		LTH3		LTH4		LTB1		LTB2		LTB4		LLFC		RTB1		LCAR		LFA1		RTB3		STRN		RMFC		RMT5		RToe		RLFC		LTH2		RTH2		RMT1		LBHD		LTB3		RTB2		LWRR		LElbow		RMMAL		RTH4		RWRU		RLMAL		RCAL		LPSI		RElbow		RTH1		RBHD		T10		RPSI		RBack		LMFC		C7		RElbowM		LElbowM		LLMAL		LCAL		LMT5		LToe		LMT1		LMMAL
			X1	Y1	Z1	X2	Y2	Z2	X3	Y3	Z3	X4	Y4	Z4	X5	Y5	Z5	X6	Y6	Z6	X7	Y7	Z7	X8	Y8	Z8	X9	Y9	Z9	X10	Y10	Z10	X11	Y11	Z11	X12	Y12	Z12	X13	Y13	Z13	X14	Y14	Z14	X15	Y15	Z15	X16	Y16	Z16	X17	Y17	Z17	X18	Y18	Z18	X19	Y19	Z19	X20	Y20	Z20	X21	Y21	Z21	X22	Y22	Z22	X23	Y23	Z23	X24	Y24	Z24	X25	Y25	Z25	X26	Y26	Z26	X27	Y27	Z27	X28	Y28	Z28	X29	Y29	Z29	X30	Y30	Z30	X31	Y31	Z31	X32	Y32	Z32	X33	Y33	Z33	X34	Y34	Z34	X35	Y35	Z35	X36	Y36	Z36	X37	Y37	Z37	X38	Y38	Z38	X39	Y39	Z39	X40	Y40	Z40	X41	Y41	Z41	X42	Y42	Z42	X43	Y43	Z43	X44	Y44	Z44	X45	Y45	Z45	X46	Y46	Z46	X47	Y47	Z47	X48	Y48	Z48	X49	Y49	Z49	X50	Y50	Z50	X51	Y51	Z51	X52	Y52	Z52	X53	Y53	Z53	X54	Y54	Z54	X55	Y55	Z55	X56	Y56	Z56	X57	Y57	Z57	X58	Y58	Z58	X59	Y59	Z59	X60	Y60	Z60	X61	Y61	Z61

365	1.825	473.33	1598.7	-60.454	469.34	1599.5	39.066	435.64	1319	-14.184	402.91	908.12	-113.09	422.3	929.55	133.23	374.56	1354.1	156.12	370.22	1187.3	216.56	431.85	909.71	282.61	507.69	813.99	245.68	519.04	746.53	292.99	353.76	1364.5	-164.81	326.12	1189.1	-217.8	388.55	788.67	-245.69	372.58	591.58	174.72	371.67	248.66	95.178	380.49	740.6	-169.64	429.18	577.87	-141.98	403.96	658.55	-156.57	428.63	345.69	-59.801	351.42	299.68	-115.61	362.36	289.77	-56.532	453.27	447.95	-125.02	388.76	333.73	105.58	362.4	720.99	-275.53	324.78	896.94	-256.09	352.16	165.7	81.552	456.92	1184.4	-12.306	343.7	438.09	16.734	382.82	23.449	107.33	471.21	26.334	53.461	378.36	443.32	141.03	458.47	679.11	-140.39	427.03	681.76	173.6	416.9	33.078	20.084	334.18	1528.6	-87.946	301.67	231.58	-52.034	327.32	253.19	137.4	319.94	780.24	-240.04	297.95	1033	-230.68	295.41	86.145	13.273	372.1	672.57	194.44	457.05	791.82	286.53	282.23	64.251	93.624	229.19	42.05	49.177	234.79	967.37	-31.068	361.49	1023.6	261.22	372.7	758.18	216.66	330.92	1535.8	55.121	248.11	1213.3	4.2072	244.71	970.8	68.924	251.37	1299.5	69.93	445.45	441.39	13.143	327.54	1423	-8.3839	329.62	1012.3	188.01	293.2	1016.7	-157.3	188.84	183.54	-98.793	126.65	195.66	-56.89	244.25	81.909	-100.76	313.88	36.892	-51.076	271.6	71.956	-25.223	208.69	189.45	-17.853
366	1.83	480.9	1599	-60.372	476.86	1599.9	39.142	442.8	1319.6	-14.125	410.02	908.88	-113.15	429.26	929.51	133.09	381.88	1354.8	156.18	378.33	1187.9	216.59	441.91	910.79	282.05	518.51	815.8	244.67	530.57	748.32	291.79	360.62	1364.9	-164.74	332.29	1189.4	-217.27	388.28	787.46	-244.3	377.09	591.56	174.32	372.52	248.67	94.88	388.62	741.68	-170.05	439.33	579.61	-142.07	413.13	659.93	-156.81	442.92	347.14	-59.42	366.96	298.98	-115.15	378.17	289.48	-56.046	465.24	449.85	-124.75	389.9	333.7	105.22	360.41	720.09	-273.63	326.84	897.22	-254.69	352.7	165.81	81.33	464.1	1185	-12.244	344.62	438.07	16.455	382.85	23.483	107.18	471.45	26.215	53.537	380.33	443.25	140.71	467.42	681.24	-140.83	432.37	681.26	172.18	417.07	33.031	20.001	341.59	1529.2	-87.929	319.08	229.72	-51.428	328.22	253.39	137.16	319.45	780.65	-238.51	303.02	1033.6	-229.41	295.73	86.424	13.057	377.69	672.51	193.83	468.2	793.12	285.6	282.37	64.62	93.363	229.36	42.582	48.909	241.9	968.01	-31.174	370.53	1024.1	261.08	379.41	758.22	215.91	338.29	1536.5	55.162	255.34	1213.7	4.5518	251.76	971.29	68.867	258.68	1299.9	70.21	457.42	443.64	13.247	334.71	1423.4	-8.3324	338.52	1012.9	187.87	298.35	1017.6	-155.99	207.52	178.51	-98.088	144.96	188.66	-55.969	266.03	78.924	-100.49	337.41	36.171	-51.349	294.08	69.657	-25.102	227.39	185.02	-17.083
367	1.835	488.46	1599.3	-60.318	484.37	1600.1	39.191	449.97	1320	-14.054	417.14	909.56	-113.22	436.18	929.43	132.96	389.21	1355.5	156.24	386.41	1188.5	216.62	451.95	911.82	281.47	529.31	817.59	243.65	542.09	750.08	290.55	367.52	1365.2	-164.67	338.5	1189.7	-216.73	388.04	786.35	-242.92	381.56	591.54	173.9	373.37	248.72	94.613	396.73	742.71	-170.49	449.36	581.28	-142.18	422.22	661.25	-157.08	457.1	348.55	-59.07	382.5	298.19	-114.74	393.99	289.14	-55.594	477.01	451.67	-124.5	391.04	333.69	104.91	358.49	719.33	-271.74	328.92	897.51	-253.3	353.24	165.95	81.124	471.29	1185.5	-12.134	345.57	438.12	16.189	382.87	23.519	107.02	471.68	26.099	53.612	382.25	443.19	140.42	476.28	683.29	-141.27	437.67	680.73	170.74	417.26	32.984	19.921	349.01	1529.7	-87.932	336.59	227.77	-50.862	329.1	253.62	136.92	319.04	781.13	-236.98	308.08	1034.1	-228.17	296.09	86.741	12.828	383.23	672.44	193.19	479.33	794.4	284.64	282.5	65.023	93.077	229.53	43.152	48.606	249	968.59	-31.301	379.52	1024.6	260.94	386.08	758.22	215.15	345.66	1537	55.174	262.57	1214.1	4.8843	258.8	971.72	68.785	265.99	1300.3	70.479	469.14	445.81	13.285	341.91	1423.8	-8.2847	347.39	1013.4	187.72	303.49	1018.4	-154.72	226.45	173.33	-97.439	163.59	181.48	-55.094	288	75.887	-100.28	361.07	35.477	-51.701	316.75	67.356	-25.044	246.31	180.45	-16.367
368	1.84	496.01	1599.4	-60.292	491.86	1600.3	39.212	457.16	1320.3	-13.974	424.26	910.15	-113.28	443.08	929.31	132.84	396.54	1356	156.31	394.47	1189	216.67	461.96	912.8	280.9	540.1	819.36	242.6	553.6	751.82	289.28	374.46	1365.4	-164.6	344.74	1189.8	-216.19	387.83	785.32	-241.55	385.97	591.51	173.45	374.21	248.79	94.379	404.82	743.68	-170.94	459.27	582.88	-142.32	431.24	662.5	-157.38	471.17	349.92	-58.758	398.05	297.3	-114.39	409.8	288.74	-55.186	488.59	453.4	-124.29	392.18	333.71	104.64	356.63	718.69	-269.87	331.04	897.83	-251.93	353.78	166.11	80.936	478.49	1186	-11.981	346.56	438.26	15.935	382.89	23.557	106.85	471.9	25.987	53.685	384.12	443.15	140.16	485.07	685.23	-141.72	442.9	680.18	169.32	417.44	32.939	19.847	356.44	1530.1	-87.954	354.2	225.76	-50.347	329.95	253.89	136.68	318.7	781.67	-235.46	313.12	1034.5	-226.96	296.47	87.099	12.584	388.7	672.37	192.54	490.45	795.63	283.65	282.61	65.461	92.767	229.71	43.76	48.266	256.1	969.1	-31.451	388.47	1025	260.8	392.7	758.18	214.41	353.03	1537.5	55.158	269.82	1214.4	5.2016	265.81	972.07	68.677	273.32	1300.7	70.737	480.61	447.89	13.26	349.14	1424.1	-8.2401	356.24	1013.8	187.58	308.62	1019.2	-153.5	245.62	168.02	-96.849	182.53	174.13	-54.271	310.16	72.828	-100.13	384.85	34.836	-52.123	339.61	65.083	-25.047	265.46	175.77	-15.714
369	1.845	503.56	1599.5	-60.292	499.35	1600.5	39.206	464.38	1320.6	-13.885	431.4	910.65	-113.35	449.96	929.16	132.73	403.88	1356.5	156.38	402.5	1189.4	216.73	471.95	913.72	280.31	550.86	821.09	241.53	565.1	753.52	287.97	381.45	1365.6	-164.53	351.02	1189.9	-215.64	387.66	784.38	-240.19	390.31	591.47	172.99	375.06	248.88	94.18	412.89	744.57	-171.41	469.05	584.39	-142.48	440.17	663.68	-157.69	485.12	351.24	-58.494	413.58	296.35	-114.09	425.6	288.3	-54.829	499.97	455.03	-124.12	393.32	333.75	104.43	354.85	718.17	-268.02	333.2	898.15	-250.57	354.32	166.31	80.766	485.69	1186.3	-11.79	347.61	438.48	15.692	382.89	23.597	106.67	472.12	25.877	53.756	385.95	443.13	139.92	493.77	687.06	-142.16	448.05	679.6	167.92	417.63	32.893	19.776	363.87	1530.4	-87.993	371.92	223.7	-49.893	330.76	254.18	136.45	318.45	782.27	-233.95	318.13	1035	-225.77	296.88	87.497	12.323	394.1	672.29	191.87	501.56	796.82	282.65	282.71	65.935	92.433	229.9	44.407	47.884	263.2	969.53	-31.623	397.37	1025.3	260.68	399.25	758.1	213.67	360.41	1537.9	55.115	277.07	1214.6	5.5005	272.79	972.36	68.543	280.65	1301	70.984	491.85	449.86	13.174	356.39	1424.4	-8.1983	365.07	1014.1	187.45	313.73	1019.9	-152.32	265.03	162.63	-96.319	201.8	166.66	-53.503	332.52	69.772	-100.03	408.74	34.271	-52.609	362.65	62.864	-25.109	284.85	171.02	-15.13
370	1.85	511.09	1599.6	-60.319	506.83	1600.6	39.175	471.62	1320.8	-13.788	438.55	911.06	-113.43	456.8	928.97	132.63	411.23	1356.9	156.46	410.51	1189.8	216.8	481.93	914.58	279.72	561.6	822.78	240.45	576.58	755.2	286.65	388.49	1365.6	-164.47	357.33	1189.9	-215.11	387.55	783.53	-238.84	394.58	591.43	172.52	375.92	249.01	94.016	420.94	745.39	-171.88	478.7	585.8	-142.65	449.03	664.77	-158.02	498.94	352.52	-58.285	429.11	295.34	-113.85	441.38	287.81	-54.533	511.14	456.56	-123.99	394.47	333.82	104.27	353.17	717.78	-266.19	335.39	898.49	-249.23	354.88	166.53	80.612	492.91	1186.5	-11.567	348.74	438.78	15.458	382.89	23.639	106.48	472.33	25.771	53.826	387.75	443.12	139.71	502.39	688.76	-142.6	453.12	679	166.57	417.82	32.848	19.709	371.31	1530.6	-88.048	389.73	221.61	-49.51	331.55	254.51	136.22	318.3	782.92	-232.44	323.13	1035.3	-224.61	297.33	87.934	12.044	399.4	672.22	191.2	512.65	797.97	281.63	282.81	66.446	92.078	230.1	45.092	47.458	270.29	969.88	-31.818	406.23	1025.5	260.56	405.69	757.99	212.96	367.8	1538.2	55.049	284.33	1214.8	5.7777	279.76	972.58	68.38	288	1301.2	71.22	502.85	451.7	13.031	363.68	1424.5	-8.1591	373.87	1014.4	187.33	318.84	1020.5	-151.18	284.69	157.17	-95.85	221.4	159.09	-52.797	355.08	66.749	-99.998	432.73	33.804	-53.151	385.85	60.728	-25.228	304.46	166.21	-14.62
371	1.855	518.62	1599.5	-60.371	514.3	1600.7	39.117	478.88	1320.9	-13.684	445.73	911.39	-113.5	463.63	928.74	132.56	418.61	1357.2	156.54	418.49	1190.1	216.87	491.88	915.38	279.12	572.32	824.44	239.35	588.05	756.84	285.29	395.58	1365.6	-164.41	363.66	1189.8	-214.57	387.51	782.76	-237.52	398.77	591.39	172.04	376.78	249.15	93.886	428.97	746.13	-172.37	488.2	587.11	-142.83	457.79	665.77	-158.36	512.64	353.74	-58.138	444.62	294.28	-113.67	457.15	287.3	-54.303	522.1	457.99	-123.89	395.63	333.91	104.15	351.59	717.5	-264.4	337.63	898.83	-247.9	355.45	166.78	80.475	500.13	1186.7	-11.318	349.96	439.17	15.234	382.88	23.683	106.27	472.52	25.668	53.895	389.54	443.13	139.53	510.94	690.32	-143.03	458.11	678.38	165.28	418	32.804	19.644	378.76	1530.7	-88.116	407.63	219.5	-49.205	332.32	254.87	135.99	318.24	783.61	-230.93	328.11	1035.6	-223.47	297.8	88.408	11.745	404.6	672.16	190.54	523.72	799.07	280.59	282.9	66.995	91.701	230.31	45.814	46.988	277.37	970.16	-32.036	415.06	1025.7	260.45	412.03	757.84	212.28	375.19	1538.5	54.963	291.6	1214.9	6.0302	286.71	972.73	68.188	295.36	1301.3	71.443	513.62	453.39	12.835	371.01	1424.7	-8.1227	382.64	1014.5	187.23	323.95	1021	-150.07	304.59	151.68	-95.44	241.32	151.47	-52.155	377.82	63.79	-100.02	456.81	33.461	-53.745	409.2	58.704	-25.404	324.29	161.37	-14.187
372	1.86	526.14	1599.4	-60.449	521.77	1600.7	39.035	486.18	1321	-13.575	452.93	911.62	-113.58	470.43	928.49	132.5	426	1357.4	156.62	426.44	1190.2	216.95	501.81	916.12	278.52	583	826.05	238.23	599.49	758.45	283.92	402.73	1365.4	-164.35	370.02	1189.7	-214.05	387.53	782.06	-236.22	402.87	591.34	171.56	377.65	249.32	93.788	436.97	746.78	-172.86	497.55	588.3	-143.01	466.47	666.68	-158.71	526.2	354.91	-58.058	460.1	293.2	-113.56	472.89	286.76	-54.146	532.83	459.3	-123.84	396.81	334.02	104.08	350.13	717.34	-262.65	339.92	899.17	-246.59	356.02	167.06	80.352	507.36	1186.7	-11.048	351.28	439.62	15.018	382.87	23.73	106.05	472.71	25.568	53.961	391.32	443.15	139.38	519.41	691.74	-143.45	463	677.73	164.07	418.18	32.758	19.581	386.21	1530.7	-88.197	425.63	217.4	-48.983	333.08	255.26	135.76	318.3	784.34	-229.42	333.06	1035.9	-222.35	298.3	88.916	11.428	409.69	672.11	189.9	534.78	800.12	279.54	283	67.582	91.306	230.52	46.575	46.476	284.46	970.35	-32.279	423.86	1025.8	260.35	418.24	757.66	211.63	382.6	1538.6	54.862	298.88	1215	6.256	293.63	972.81	67.964	302.73	1301.5	71.653	524.17	454.91	12.59	378.37	1424.7	-8.0898	391.38	1014.6	187.15	329.06	1021.5	-149	324.73	146.19	-95.092	261.57	143.84	-51.581	400.74	60.925	-100.11	480.98	33.264	-54.388	432.7	56.819	-25.637	344.36	156.53	-13.832
